<?xml version="1.0" standalone="no"?>
<!DOCTYPE svg PUBLIC "-//W3C//DTD SVG 20010904//EN"
 "http://www.w3.org/TR/2001/REC-SVG-20010904/DTD/svg10.dtd">
<svg version="1.0" xmlns="http://www.w3.org/2000/svg"
 width="1226.000000pt" height="1226.000000pt" viewBox="0 0 1226.000000 1226.000000"
 preserveAspectRatio="xMidYMid meet">
<metadata>
Created by potrace 1.14, written by Peter Selinger 2001-2017
</metadata>
<g transform="translate(0.000000,1226.000000) scale(0.100000,-0.100000)"
fill="#000000" stroke="none">
<path d="M11805 12215 c-71 -18 -251 -70 -400 -115 -638 -192 -1054 -303
-1372 -365 -55 -10 -309 -56 -343 -61 -19 -3 -42 -7 -50 -9 -8 -2 -31 -7 -50
-10 -19 -3 -93 -17 -165 -30 -71 -13 -146 -27 -165 -30 -70 -12 -266 -57 -330
-77 -150 -47 -286 -130 -355 -220 -16 -21 -35 -44 -41 -51 -24 -27 -70 -107
-115 -197 -141 -286 -166 -352 -249 -670 -72 -275 -134 -422 -206 -494 -51
-51 -99 -70 -159 -64 -149 17 -188 112 -189 453 -1 190 10 399 28 561 3 27 8
81 11 119 3 39 8 81 10 95 2 14 6 57 10 95 3 39 8 81 10 95 2 14 6 52 10 85 3
33 8 71 10 85 2 14 7 52 10 85 3 33 8 75 11 94 l6 34 -439 -6 c-241 -4 -483
-9 -538 -11 -206 -11 -312 -17 -365 -21 -30 -3 -86 -7 -125 -10 -163 -11 -236
-18 -400 -35 -96 -10 -126 -13 -232 -25 -45 -5 -109 -14 -143 -20 -14 -2 -65
-10 -150 -21 -53 -8 -292 -46 -315 -50 -11 -3 -36 -7 -55 -10 -157 -25 -311
-80 -535 -190 -314 -154 -442 -323 -536 -712 -11 -48 -22 -98 -25 -112 -2 -14
-9 -45 -14 -70 -5 -25 -12 -58 -15 -75 -3 -16 -18 -106 -35 -200 -16 -93 -32
-183 -35 -200 -3 -16 -7 -41 -10 -55 -6 -29 -32 -178 -40 -230 -12 -71 -84
-407 -103 -480 -26 -95 -60 -200 -72 -222 -6 -10 -10 -23 -10 -28 0 -20 -81
-173 -113 -214 -61 -78 -123 -112 -212 -115 -95 -3 -131 7 -171 47 -81 81
-135 254 -184 586 -10 72 -22 158 -25 191 -4 33 -8 71 -10 85 -2 14 -7 61 -10
105 -3 44 -8 96 -11 115 -5 44 -14 157 -29 390 -7 103 -12 188 -20 345 -4 66
-8 149 -10 185 -2 36 -4 80 -5 98 l0 34 -102 -55 c-302 -160 -612 -369 -893
-601 -113 -94 -404 -377 -489 -476 -451 -523 -752 -1095 -956 -1813 -17 -62
-21 -93 -16 -145 9 -106 16 -143 28 -166 6 -11 11 -23 10 -26 -7 -21 71 -193
130 -290 115 -186 348 -425 638 -655 41 -32 77 -62 80 -65 35 -40 446 -327
615 -429 102 -62 99 -60 212 -134 208 -136 249 -217 157 -309 -78 -79 -252
-135 -529 -172 -90 -12 -350 -13 -427 -2 -32 5 -103 17 -132 22 -87 16 -301
83 -378 117 -18 9 -54 24 -81 36 -26 11 -92 45 -148 76 -55 31 -103 55 -105
52 -3 -3 -1 -13 5 -24 5 -10 24 -54 42 -98 275 -688 848 -1320 1639 -1807 58
-36 128 -78 155 -93 141 -80 209 -117 302 -164 57 -29 103 -54 103 -56 0 -2
-109 -168 -242 -369 -229 -344 -292 -440 -534 -814 -54 -84 -197 -301 -317
-482 l-218 -329 34 -53 c67 -106 210 -213 376 -283 105 -45 286 -101 377 -118
l71 -13 15 30 c8 17 75 150 149 296 74 146 179 360 234 475 85 179 474 959
516 1035 30 54 30 55 64 -21 186 -423 457 -852 769 -1214 77 -90 359 -372 456
-457 403 -351 920 -653 1420 -829 107 -38 285 -94 326 -104 10 -2 74 -18 141
-35 105 -26 274 -59 393 -76 19 -3 46 -7 60 -9 14 -3 52 -7 85 -10 33 -3 80
-8 105 -10 132 -14 484 -26 508 -17 15 5 -30 90 -252 480 -149 263 -276 508
-331 642 -69 167 -153 445 -170 560 -4 25 -10 65 -15 90 -5 25 -11 72 -15 105
-4 33 -8 76 -11 95 -6 49 -5 280 1 310 14 71 19 89 41 132 42 83 117 118 241
114 126 -4 217 -61 311 -191 32 -45 31 -43 131 -245 140 -282 193 -385 207
-401 8 -8 14 -19 14 -24 0 -16 149 -231 215 -310 273 -327 544 -534 822 -624
171 -56 282 -73 498 -75 197 -3 324 10 535 55 209 44 340 82 390 112 159 96
328 233 500 406 340 341 606 752 817 1261 57 136 133 344 133 363 0 5 -21 -9
-46 -32 -91 -80 -186 -104 -288 -74 -67 20 -170 123 -211 210 -16 34 -32 60
-35 58 -14 -9 -68 -15 -127 -16 -50 0 -76 6 -127 30 -165 79 -235 261 -203
531 l7 55 -60 28 c-77 36 -159 117 -196 192 -53 109 -40 239 35 350 17 25 31
47 31 48 0 1 -213 2 -472 2 -544 0 -674 7 -812 42 -82 20 -130 46 -162 89 -24
31 -28 46 -30 111 -6 196 109 350 333 449 31 14 96 44 147 68 172 82 294 112
653 161 138 19 172 24 203 31 14 3 36 8 50 10 142 25 340 92 481 163 86 43
320 191 458 288 266 188 382 461 375 878 -2 99 -10 235 -19 286 -2 13 -6 45
-10 72 -6 49 -58 220 -127 417 -53 152 -139 410 -143 430 -2 8 -11 42 -21 75
-10 33 -19 65 -20 70 -1 6 -16 66 -33 135 -17 69 -33 136 -36 150 -3 14 -7 36
-10 50 -3 14 -12 63 -20 110 -9 47 -17 95 -19 106 -2 12 -7 45 -11 74 -4 29
-8 60 -10 69 -1 9 -6 45 -9 81 -4 36 -9 81 -11 100 -10 84 -18 246 -19 387 -1
84 -3 153 -5 153 -2 0 -76 -24 -165 -54 -313 -106 -581 -171 -785 -191 -78 -7
-226 -7 -266 0 -132 25 -211 60 -271 121 -93 97 -60 238 93 391 118 117 241
177 508 248 205 54 245 66 348 100 128 42 221 87 296 143 218 164 390 421 503
751 172 504 453 1026 771 1429 15 19 -13 15 -158 -23z m-2529 -820 c21 -22 24
-31 20 -72 -8 -70 -11 -83 -67 -258 -124 -390 -160 -457 -262 -500 -65 -27
-162 -7 -193 40 -42 64 -11 284 63 443 61 132 202 290 304 341 75 38 102 39
135 6z m-2809 -2431 c64 -40 121 -121 154 -219 7 -22 14 -42 14 -45 2 -12 16
-77 21 -100 7 -35 7 -186 -1 -240 -19 -132 -55 -236 -111 -321 -86 -130 -193
-192 -330 -191 -125 1 -204 47 -250 147 -69 149 -70 396 -4 565 80 205 210
362 345 417 40 16 126 9 162 -13z m-1350 -90 c102 -49 207 -244 231 -427 42
-323 -69 -567 -273 -601 -139 -24 -275 169 -321 456 -38 237 96 540 261 589
26 8 62 2 102 -17z m2686 -218 c189 -79 235 -454 93 -761 -148 -319 -421 -501
-642 -425 -56 20 -65 25 -119 76 -33 31 -82 116 -91 158 -55 244 35 564 209
744 53 55 169 141 227 169 45 21 127 49 165 55 41 7 123 -1 158 -16z m-6868
-642 c40 -26 60 -69 124 -263 84 -253 135 -348 271 -495 19 -21 46 -50 59 -65
13 -14 54 -57 90 -96 132 -137 193 -227 187 -271 -5 -36 -53 -59 -116 -57
-238 8 -556 250 -712 543 -140 264 -168 561 -62 671 44 46 116 61 159 33z
m8283 -58 c141 -52 206 -157 203 -335 -1 -60 -30 -212 -50 -256 -5 -11 -21
-49 -36 -85 -36 -85 -100 -183 -190 -295 -288 -355 -620 -488 -878 -352 -305
160 -234 661 148 1050 108 111 144 138 250 190 109 55 161 74 252 91 86 18
244 13 301 -8z m-4491 -769 c5 -3 20 -8 34 -10 44 -9 163 -50 227 -78 34 -16
64 -29 66 -29 2 0 95 -45 207 -99 328 -160 529 -236 689 -262 36 -5 77 -12 92
-15 46 -7 198 -7 313 1 611 44 1057 -63 1299 -313 117 -121 196 -290 224 -480
9 -62 8 -291 -1 -370 -21 -172 -64 -347 -142 -579 -69 -205 -119 -303 -252
-493 -91 -129 -322 -345 -508 -475 -297 -206 -691 -367 -1005 -411 -19 -2 -44
-7 -55 -9 -83 -18 -376 -24 -490 -11 -33 4 -78 9 -101 12 -73 7 -262 53 -372
91 -216 72 -466 212 -662 368 -62 50 -201 198 -258 275 -34 47 -66 90 -70 95
-10 12 -62 104 -96 168 -92 175 -179 455 -202 652 -3 28 -7 52 -9 55 -7 11
-18 217 -18 320 0 131 9 248 28 365 36 223 82 383 163 565 83 189 198 365 314
479 55 56 183 145 221 156 12 3 31 10 42 15 42 19 114 28 211 25 56 -1 106 -5
111 -8z"/>
</g>
</svg>
